<svg xmlns="http://www.w3.org/2000/svg" viewBox="0 0 22 22">
    <defs>
        <style>
            .cls-1,.cls-4{fill:none}.cls-1{stroke:rgba(0,0,0,0)}.cls-2{stroke:#000;stroke-width:.3px}.cls-3{stroke:none}
        </style>
    </defs>
    <g id="Group_212" data-name="Group 212" transform="translate(-1603 -220)">
        <g id="Rectangle_282" class="cls-1" data-name="Rectangle 282">
            <path d="M0 0h22v22H0z" class="cls-3" transform="translate(1603 220)"/>
            <path d="M.5.5h21v21H.5z" class="cls-4" transform="translate(1603 220)"/>
        </g>
        <g id="Group_136" data-name="Group 136" transform="translate(1214 -525)">
            <g id="ic_dropdown_logout" transform="translate(0 17)">
                <g id="logout" transform="translate(391 732)">
                    <g id="Group_116" data-name="Group 116">
                        <path id="Path_546" d="M0 61.285v9.331a2.224 2.224 0 0 0 2.082 2.334h6.725a2.224 2.224 0 0 0 2.082-2.335V69.1a.415.415 0 1 0-.825 0v1.511A1.347 1.347 0 0 1 8.8 72.029H2.082a1.347 1.347 0 0 1-1.26-1.414v-9.33a1.347 1.347 0 0 1 1.26-1.414h6.725a1.347 1.347 0 0 1 1.26 1.414V62.8a.415.415 0 1 0 .825 0v-1.515A2.224 2.224 0 0 0 8.81 58.95H2.082A2.221 2.221 0 0 0 0 61.285z" class="cls-2" data-name="Path 546" transform="translate(0 -58.95)"/>
                        <path id="Path_547" d="M213.013 155.083a.513.513 0 0 0 .652 0l3.145-2.727a.36.36 0 0 0 0-.562l-3.145-2.727a.508.508 0 0 0-.648 0 .36.36 0 0 0 0 .562l2.361 2.047h-8.617a.4.4 0 1 0 0 .8h8.613l-2.361 2.047a.357.357 0 0 0 0 .56z" class="cls-2" data-name="Path 547" transform="translate(-198.945 -145.077)"/>
                    </g>
                </g>
            </g>
        </g>
    </g>
</svg>
